<svg width="25" height="24" viewBox="0 0 25 24" fill="none" xmlns="http://www.w3.org/2000/svg">
<path d="M12.0513 2.04004C6.5278 2.04004 2.00854 6.53004 2.00854 12.06C2.00854 17.06 5.68421 21.21 10.4847 21.96V14.96H7.93379V12.06H10.4847V9.85004C10.4847 7.34004 11.981 5.96004 14.2808 5.96004C15.3755 5.96004 16.5204 6.15004 16.5204 6.15004V8.62004H15.255C14.0097 8.62004 13.618 9.39004 13.618 10.18V12.06H16.4099L15.958 14.96H13.618V21.96C15.9845 21.5879 18.1395 20.3856 19.6938 18.5701C21.2482 16.7546 22.0995 14.4457 22.0941 12.06C22.0941 6.53004 17.5749 2.04004 12.0513 2.04004Z" fill="#0F3363"/>
</svg>
