<svg width="24" height="24" viewBox="0 0 24 24" fill="none" xmlns="http://www.w3.org/2000/svg">
<path d="M8.62 10.79C10.06 13.62 12.38 15.94 15.21 17.38L17.41 15.18C17.69 14.9 18.08 14.82 18.43 14.93C19.55 15.3 20.75 15.5 22 15.5C22.2652 15.5 22.5196 15.6054 22.7071 15.7929C22.8946 15.9804 23 16.2348 23 16.5V20C23 20.2652 22.8946 20.5196 22.7071 20.7071C22.5196 20.8946 22.2652 21 22 21C17.4913 21 13.1673 19.2089 9.97918 16.0208C6.79107 12.8327 5 8.50868 5 4C5 3.73478 5.10536 3.48043 5.29289 3.29289C5.48043 3.10536 5.73478 3 6 3H9.5C9.76522 3 10.0196 3.10536 10.2071 3.29289C10.3946 3.48043 10.5 3.73478 10.5 4C10.5 5.25 10.7 6.45 11.07 7.57C11.18 7.92 11.1 8.31 10.82 8.59L8.62 10.79Z" fill="#313488"/>
</svg>
